<svg width="14" height="14" viewBox="0 0 14 14" fill="none" xmlns="http://www.w3.org/2000/svg">
<g clip-path="url(#clip0_512_37)">
<path d="M2.10085 13.125C1.91488 13.1241 1.73684 13.0496 1.60577 12.9176C1.4747 12.7857 1.40131 12.6071 1.40167 12.4212C1.4033 12.3505 1.41433 12.2803 1.43448 12.2125L1.93815 10.3906C1.95921 10.3234 1.93542 10.2555 1.90452 10.202L1.89851 10.191C1.89632 10.1875 1.88593 10.173 1.87854 10.1623C1.87116 10.1516 1.86269 10.1402 1.85503 10.1289L1.84983 10.1216C1.21386 9.15765 0.874907 8.02821 0.875029 6.8734C0.870107 5.29867 1.48616 3.8109 2.61026 2.68215C3.77347 1.51676 5.32933 0.875001 6.99511 0.875001C8.40823 0.874303 9.77944 1.35497 10.8828 2.23781C11.9616 3.10598 12.7113 4.31594 12.9941 5.64703C13.0811 6.0514 13.1249 6.46387 13.1248 6.8775C13.1248 8.48887 12.5057 10.0023 11.3813 11.1396C10.2471 12.288 8.72405 12.9186 7.093 12.9186C6.51878 12.9186 5.78405 12.772 5.43132 12.6725C5.00694 12.5538 4.60472 12.399 4.56042 12.3826C4.51354 12.3647 4.46378 12.3554 4.41358 12.3553C4.35914 12.3549 4.30519 12.3656 4.25499 12.3867L4.23175 12.3957L2.38659 13.0624C2.29597 13.1005 2.19912 13.1218 2.10085 13.125Z" fill="#4987E5"/>
</g>
<defs>
<clipPath id="clip0_512_37">
<rect width="14" height="14" fill="white"/>
</clipPath>
</defs>
</svg>
