<svg width="14" height="14" viewBox="0 0 14 14" fill="none" xmlns="http://www.w3.org/2000/svg">
<path d="M7 12.25C6.82437 12.2498 6.65287 12.1967 6.50781 12.0977C4.35887 10.6389 3.42836 9.63867 2.91512 9.01332C1.82137 7.68031 1.29773 6.31176 1.3125 4.82973C1.32973 3.13141 2.69226 1.75 4.34984 1.75C5.55515 1.75 6.38996 2.42895 6.87613 2.99441C6.89153 3.01215 6.91056 3.02637 6.93193 3.03611C6.9533 3.04585 6.97651 3.0509 7 3.0509C7.02349 3.0509 7.0467 3.04585 7.06807 3.03611C7.08944 3.02637 7.10847 3.01215 7.12387 2.99441C7.61004 2.4284 8.44484 1.75 9.65016 1.75C11.3077 1.75 12.6703 3.13141 12.6875 4.83C12.7023 6.3123 12.1781 7.68086 11.0849 9.01359C10.5716 9.63895 9.64113 10.6392 7.49219 12.098C7.3471 12.1969 7.1756 12.2499 7 12.25Z" fill="#ED6935"/>
</svg>
