<svg width="188" height="36" viewBox="0 0 188 36" fill="none" xmlns="http://www.w3.org/2000/svg">
<circle cx="17.4929" cy="18" r="15.3063" stroke="white" stroke-width="4.37322"/>
<circle cx="35.0733" cy="18.0866" r="12.1576" fill="url(#paint0_linear_2_78)"/>
<path d="M17.4491 13.6701L13.1196 17.9996L17.4491 22.3291" stroke="white" stroke-width="4.37322" stroke-linecap="square"/>
<path d="M33.9872 22.3305L38.3167 18.001L33.9872 13.6715" stroke="white" stroke-width="4.37322" stroke-linecap="square"/>
<path d="M59.4127 11.2533C60.8849 11.2533 62.1714 11.5385 63.2721 12.1088C64.3862 12.6658 65.2416 13.4748 65.8385 14.5358C66.4485 15.5836 66.7536 16.8104 66.7536 18.2162C66.7536 19.622 66.4485 20.8422 65.8385 21.8767C65.2416 22.9112 64.3862 23.7069 63.2721 24.2639C62.1714 24.8077 60.8849 25.0796 59.4127 25.0796H54.8968V11.2533H59.4127ZM59.4127 23.2295C61.0308 23.2295 62.2708 22.7918 63.1329 21.9165C63.995 21.0411 64.426 19.8077 64.426 18.2162C64.426 16.6114 63.995 15.3581 63.1329 14.4563C62.2708 13.5544 61.0308 13.1035 59.4127 13.1035H57.1647V23.2295H59.4127ZM68.2453 19.5491C68.2453 18.4483 68.4708 17.4735 68.9217 16.6247C69.3859 15.7759 70.0092 15.1194 70.7917 14.6552C71.5875 14.1777 72.4628 13.939 73.4177 13.939C74.2798 13.939 75.0291 14.1114 75.6657 14.4563C76.3156 14.7878 76.8328 15.2056 77.2174 15.7096V14.1181H79.5052V25.0796H77.2174V23.4483C76.8328 23.9655 76.309 24.3966 75.6458 24.7414C74.9827 25.0862 74.2267 25.2586 73.3779 25.2586C72.4363 25.2586 71.5742 25.0199 70.7917 24.5425C70.0092 24.0517 69.3859 23.3753 68.9217 22.5133C68.4708 21.6379 68.2453 20.6499 68.2453 19.5491ZM77.2174 19.5889C77.2174 18.8329 77.0583 18.1764 76.74 17.6194C76.435 17.0624 76.0304 16.638 75.5265 16.3462C75.0225 16.0544 74.4787 15.9085 73.8952 15.9085C73.3116 15.9085 72.7678 16.0544 72.2639 16.3462C71.7599 16.6247 71.3488 17.0425 71.0305 17.5995C70.7254 18.1433 70.5729 18.7931 70.5729 19.5491C70.5729 20.3051 70.7254 20.9682 71.0305 21.5385C71.3488 22.1088 71.7599 22.5464 72.2639 22.8515C72.7811 23.1433 73.3249 23.2891 73.8952 23.2891C74.4787 23.2891 75.0225 23.1433 75.5265 22.8515C76.0304 22.5597 76.435 22.1353 76.74 21.5783C77.0583 21.008 77.2174 20.3448 77.2174 19.5889ZM86.4628 25.2586C85.6007 25.2586 84.8249 25.1061 84.1352 24.8011C83.4588 24.4828 82.9217 24.0584 82.5238 23.5279C82.126 22.9841 81.9138 22.3807 81.8872 21.7175H84.2347C84.2745 22.1817 84.4933 22.573 84.8912 22.8913C85.3023 23.1963 85.813 23.3488 86.423 23.3488C87.0596 23.3488 87.5503 23.2295 87.8952 22.9907C88.2533 22.7387 88.4323 22.4204 88.4323 22.0358C88.4323 21.6247 88.2334 21.3196 87.8355 21.1207C87.4509 20.9218 86.8342 20.7029 85.9854 20.4642C85.1631 20.2387 84.4933 20.0199 83.9761 19.8077C83.4588 19.5955 83.0079 19.2706 82.6233 18.8329C82.2519 18.3952 82.0663 17.8183 82.0663 17.1021C82.0663 16.5186 82.2387 15.9881 82.5835 15.5106C82.9283 15.0199 83.4191 14.6353 84.0557 14.3568C84.7055 14.0783 85.4482 13.939 86.2838 13.939C87.5305 13.939 88.5318 14.2573 89.2877 14.8939C90.057 15.5173 90.4681 16.3727 90.5212 17.4602H88.2533C88.2135 16.9695 88.0145 16.5783 87.6565 16.2865C87.2984 15.9947 86.8143 15.8488 86.2042 15.8488C85.6074 15.8488 85.1498 15.9616 84.8315 16.187C84.5132 16.4125 84.3541 16.7109 84.3541 17.0823C84.3541 17.374 84.4602 17.6194 84.6724 17.8183C84.8846 18.0173 85.1432 18.1764 85.4482 18.2958C85.7533 18.4019 86.2042 18.5411 86.801 18.7135C87.5968 18.9257 88.2466 19.1446 88.7506 19.37C89.2679 19.5822 89.7122 19.9005 90.0835 20.325C90.4549 20.7494 90.6472 21.313 90.6604 22.0159C90.6604 22.6393 90.488 23.1963 90.1432 23.687C89.7984 24.1777 89.3076 24.5623 88.671 24.8409C88.0477 25.1194 87.3116 25.2586 86.4628 25.2586ZM95.7568 15.9682V22.0358C95.7568 22.447 95.8497 22.7454 96.0353 22.9311C96.2343 23.1035 96.5658 23.1897 97.03 23.1897H98.4226V25.0796H96.6322C95.6109 25.0796 94.8285 24.8409 94.2847 24.3634C93.7409 23.886 93.469 23.1101 93.469 22.0358V15.9682H92.1759V14.1181H93.469V11.3926H95.7568V14.1181H98.4226V15.9682H95.7568ZM110.44 14.1181V25.0796H108.172V23.7865C107.814 24.2374 107.343 24.5955 106.76 24.8608C106.189 25.1127 105.579 25.2387 104.929 25.2387C104.067 25.2387 103.291 25.0597 102.602 24.7016C101.925 24.3435 101.388 23.813 100.99 23.1101C100.606 22.4072 100.413 21.5584 100.413 20.5637V14.1181H102.661V20.2255C102.661 21.2069 102.907 21.9629 103.397 22.4934C103.888 23.0106 104.558 23.2692 105.407 23.2692C106.256 23.2692 106.925 23.0106 107.416 22.4934C107.92 21.9629 108.172 21.2069 108.172 20.2255V14.1181H110.44ZM115.7 15.7096C116.032 15.1525 116.469 14.7215 117.013 14.4165C117.57 14.0982 118.227 13.939 118.983 13.939V16.2865H118.406C117.517 16.2865 116.841 16.512 116.377 16.9629C115.926 17.4138 115.7 18.1963 115.7 19.3104V25.0796H113.432V14.1181H115.7V15.7096ZM120.311 19.5889C120.311 18.4616 120.537 17.4735 120.988 16.6247C121.452 15.7626 122.089 15.0995 122.898 14.6353C123.707 14.1711 124.635 13.939 125.683 13.939C127.009 13.939 128.103 14.2573 128.965 14.8939C129.84 15.5173 130.431 16.4125 130.736 17.5796H128.289C128.09 17.0358 127.772 16.6114 127.334 16.3064C126.896 16.0013 126.346 15.8488 125.683 15.8488C124.754 15.8488 124.012 16.1804 123.455 16.8435C122.911 17.4934 122.639 18.4085 122.639 19.5889C122.639 20.7692 122.911 21.691 123.455 22.3541C124.012 23.0173 124.754 23.3488 125.683 23.3488C126.996 23.3488 127.864 22.7719 128.289 21.6181H130.736C130.417 22.7321 129.821 23.6207 128.945 24.2838C128.07 24.9337 126.982 25.2586 125.683 25.2586C124.635 25.2586 123.707 25.0265 122.898 24.5623C122.089 24.0849 121.452 23.4218 120.988 22.573C120.537 21.7109 120.311 20.7162 120.311 19.5889ZM138.666 13.939C139.501 13.939 140.244 14.1181 140.894 14.4762C141.557 14.8342 142.074 15.3647 142.445 16.0677C142.83 16.7706 143.022 17.6194 143.022 18.6141V25.0796H140.774V18.9523C140.774 17.9708 140.529 17.2215 140.038 16.7043C139.548 16.1738 138.878 15.9085 138.029 15.9085C137.18 15.9085 136.504 16.1738 136 16.7043C135.509 17.2215 135.264 17.9708 135.264 18.9523V25.0796H132.996V10.3581H135.264V15.3913C135.648 14.9271 136.132 14.569 136.716 14.317C137.313 14.065 137.963 13.939 138.666 13.939ZM147.069 12.6658C146.658 12.6658 146.313 12.5266 146.035 12.248C145.756 11.9695 145.617 11.6247 145.617 11.2136C145.617 10.8024 145.756 10.4576 146.035 10.1791C146.313 9.90056 146.658 9.7613 147.069 9.7613C147.467 9.7613 147.805 9.90056 148.084 10.1791C148.362 10.4576 148.501 10.8024 148.501 11.2136C148.501 11.6247 148.362 11.9695 148.084 12.248C147.805 12.5266 147.467 12.6658 147.069 12.6658ZM148.183 14.1181V25.0796H145.915V14.1181H148.183ZM153.429 10.3581V25.0796H151.161V10.3581H153.429ZM155.65 19.5491C155.65 18.4483 155.876 17.4735 156.327 16.6247C156.791 15.7759 157.414 15.1194 158.197 14.6552C158.992 14.1777 159.868 13.939 160.823 13.939C161.685 13.939 162.434 14.1114 163.071 14.4563C163.72 14.7878 164.238 15.2056 164.622 15.7096V14.1181H166.91V25.0796H164.622V23.4483C164.238 23.9655 163.714 24.3966 163.051 24.7414C162.388 25.0862 161.632 25.2586 160.783 25.2586C159.841 25.2586 158.979 25.0199 158.197 24.5425C157.414 24.0517 156.791 23.3753 156.327 22.5133C155.876 21.6379 155.65 20.6499 155.65 19.5491ZM164.622 19.5889C164.622 18.8329 164.463 18.1764 164.145 17.6194C163.84 17.0624 163.435 16.638 162.931 16.3462C162.427 16.0544 161.884 15.9085 161.3 15.9085C160.716 15.9085 160.173 16.0544 159.669 16.3462C159.165 16.6247 158.754 17.0425 158.435 17.5995C158.13 18.1433 157.978 18.7931 157.978 19.5491C157.978 20.3051 158.13 20.9682 158.435 21.5385C158.754 22.1088 159.165 22.5464 159.669 22.8515C160.186 23.1433 160.73 23.2891 161.3 23.2891C161.884 23.2891 162.427 23.1433 162.931 22.8515C163.435 22.5597 163.84 22.1353 164.145 21.5783C164.463 21.008 164.622 20.3448 164.622 19.5889ZM172.157 15.7096C172.488 15.1525 172.926 14.7215 173.47 14.4165C174.027 14.0982 174.683 13.939 175.439 13.939V16.2865H174.862C173.974 16.2865 173.297 16.512 172.833 16.9629C172.382 17.4138 172.157 18.1963 172.157 19.3104V25.0796H169.889V14.1181H172.157V15.7096ZM178.439 25.2188C178.028 25.2188 177.683 25.0796 177.405 24.8011C177.126 24.5226 176.987 24.1777 176.987 23.7666C176.987 23.3555 177.126 23.0106 177.405 22.7321C177.683 22.4536 178.028 22.3143 178.439 22.3143C178.837 22.3143 179.175 22.4536 179.454 22.7321C179.732 23.0106 179.871 23.3555 179.871 23.7666C179.871 24.1777 179.732 24.5226 179.454 24.8011C179.175 25.0796 178.837 25.2188 178.439 25.2188Z" fill="white"/>
<path d="M161.04 30.487C161.04 29.9746 161.142 29.5285 161.347 29.1487C161.552 28.7629 161.835 28.4645 162.197 28.2535C162.565 28.0425 162.984 27.937 163.454 27.937C164.063 27.937 164.563 28.0847 164.955 28.3801C165.353 28.6755 165.615 29.0854 165.742 29.6099H164.856C164.771 29.3085 164.605 29.0703 164.358 28.8955C164.117 28.7207 163.816 28.6333 163.454 28.6333C162.984 28.6333 162.604 28.796 162.315 29.1216C162.025 29.4411 161.881 29.8962 161.881 30.487C161.881 31.0838 162.025 31.545 162.315 31.8705C162.604 32.1961 162.984 32.3589 163.454 32.3589C163.816 32.3589 164.117 32.2745 164.358 32.1057C164.599 31.9369 164.765 31.6957 164.856 31.3822H165.742C165.609 31.8886 165.344 32.2956 164.946 32.603C164.548 32.9044 164.051 33.0551 163.454 33.0551C162.984 33.0551 162.565 32.9496 162.197 32.7386C161.835 32.5276 161.552 32.2292 161.347 31.8434C161.142 31.4576 161.04 31.0055 161.04 30.487ZM166.532 30.478C166.532 29.9716 166.635 29.5285 166.84 29.1487C167.045 28.7629 167.325 28.4645 167.681 28.2535C168.042 28.0425 168.443 27.937 168.883 27.937C169.317 27.937 169.694 28.0304 170.014 28.2173C170.333 28.4042 170.571 28.6393 170.728 28.9226V28.0184H171.56V32.9738H170.728V32.0514C170.565 32.3408 170.321 32.5819 169.996 32.7748C169.676 32.9617 169.302 33.0551 168.874 33.0551C168.434 33.0551 168.036 32.9466 167.681 32.7296C167.325 32.5126 167.045 32.2081 166.84 31.8163C166.635 31.4244 166.532 30.9783 166.532 30.478ZM170.728 30.487C170.728 30.1133 170.653 29.7877 170.502 29.5104C170.351 29.2331 170.146 29.0221 169.887 28.8774C169.634 28.7267 169.354 28.6514 169.046 28.6514C168.739 28.6514 168.458 28.7237 168.205 28.8684C167.952 29.0131 167.75 29.2241 167.599 29.5014C167.449 29.7787 167.373 30.1042 167.373 30.478C167.373 30.8578 167.449 31.1893 167.599 31.4727C167.75 31.75 167.952 31.964 168.205 32.1147C168.458 32.2594 168.739 32.3317 169.046 32.3317C169.354 32.3317 169.634 32.2594 169.887 32.1147C170.146 31.964 170.351 31.75 170.502 31.4727C170.653 31.1893 170.728 30.8608 170.728 30.487ZM174.967 28.6966H173.927V32.9738H173.104V28.6966H172.462V28.0184H173.104V27.6657C173.104 27.1111 173.246 26.7072 173.529 26.454C173.819 26.1948 174.28 26.0652 174.913 26.0652V26.7524C174.551 26.7524 174.295 26.8247 174.144 26.9694C174 27.1081 173.927 27.3402 173.927 27.6657V28.0184H174.967V28.6966ZM180.448 30.3062C180.448 30.4629 180.439 30.6287 180.421 30.8035H176.46C176.49 31.2918 176.656 31.6746 176.957 31.9519C177.265 32.2232 177.636 32.3589 178.07 32.3589C178.425 32.3589 178.721 32.2775 178.956 32.1147C179.197 31.9459 179.366 31.7229 179.462 31.4455H180.348C180.216 31.9218 179.951 32.3106 179.553 32.612C179.155 32.9074 178.661 33.0551 178.07 33.0551C177.6 33.0551 177.178 32.9496 176.804 32.7386C176.436 32.5276 176.147 32.2292 175.936 31.8434C175.725 31.4516 175.619 30.9994 175.619 30.487C175.619 29.9746 175.722 29.5255 175.927 29.1397C176.132 28.7538 176.418 28.4584 176.786 28.2535C177.159 28.0425 177.587 27.937 178.07 27.937C178.54 27.937 178.956 28.0395 179.318 28.2444C179.679 28.4494 179.957 28.7327 180.15 29.0944C180.348 29.4501 180.448 29.854 180.448 30.3062ZM179.598 30.1344C179.598 29.8209 179.529 29.5526 179.39 29.3296C179.251 29.1005 179.061 28.9287 178.82 28.8141C178.585 28.6936 178.323 28.6333 178.034 28.6333C177.618 28.6333 177.262 28.7659 176.967 29.0311C176.677 29.2964 176.511 29.6641 176.469 30.1344H179.598Z" fill="white"/>
<defs>
<linearGradient id="paint0_linear_2_78" x1="35.0733" y1="5.92908" x2="35.0733" y2="30.2442" gradientUnits="userSpaceOnUse">
<stop stop-color="#4987E5"/>
<stop offset="1" stop-color="#2F49D1"/>
</linearGradient>
</defs>
</svg>
