<svg width="22" height="17" viewBox="0 0 22 17" fill="none" xmlns="http://www.w3.org/2000/svg">
<circle cx="8.02139" cy="8.52139" r="7.01872" stroke="white" stroke-width="2.00535"/>
<path d="M12.1408 12.5035C8.19882 8.56146 8.19882 8.56146 12.1408 4.61944C14.318 2.44232 17.8478 2.44232 20.0249 4.61944C22.202 6.79656 22.202 10.3264 20.0249 12.5035C17.8478 14.6806 14.318 14.6806 12.1408 12.5035Z" fill="#20AF14"/>
<path d="M13.6364 8.2005V8.2005C13.6364 7.09298 14.5342 6.19515 15.6417 6.19515L18.6096 6.19515L18.6096 8.2005L13.6364 8.2005Z" fill="white"/>
<path d="M15.6818 10.8477C14.5743 10.8477 13.6765 9.94983 13.6765 8.84231V8.84231L17.1257 8.84231L17.1257 10.8477L15.6818 10.8477Z" fill="white"/>
<path d="M8.00135 6.51996L6.01605 8.49996L8.00135 10.48" stroke="white" stroke-width="2.00535" stroke-linecap="square"/>
</svg>
