<svg width="22" height="17" viewBox="0 0 22 17" fill="none" xmlns="http://www.w3.org/2000/svg">
<path d="M8.02139 1.50274C11.8977 1.50274 15.0401 4.64512 15.0401 8.52146C15.0401 10.5513 15.0386 11.9887 14.9209 13.0481C14.8024 14.1149 14.584 14.5783 14.3311 14.8312C14.0783 15.084 13.6148 15.3024 12.548 15.421C11.4886 15.5387 10.0512 15.5402 8.02139 15.5402C4.14506 15.5402 1.00267 12.3978 1.00267 8.52146C1.00267 4.64513 4.14506 1.50274 8.02139 1.50274Z" stroke="white" stroke-width="2.00535"/>
<path d="M10.508 8.56149C10.508 2.98662 10.508 2.98662 16.0829 2.98662C19.1618 2.98662 21.6578 5.48257 21.6578 8.56149C21.6578 11.6404 19.1618 14.1364 16.0829 14.1364C13.004 14.1364 10.508 11.6404 10.508 8.56149Z" fill="#E39F1A"/>
<path fill-rule="evenodd" clip-rule="evenodd" d="M6.85829 7.07749C6.52604 7.07749 6.25669 7.34684 6.25669 7.6791H4.25134C4.25134 6.23932 5.41851 5.07214 6.85829 5.07214C8.29807 5.07214 9.46525 6.23932 9.46525 7.6791C9.46525 8.78462 8.76564 9.70038 7.82086 10.0876V10.2459H5.81551V9.28337C5.81551 8.72961 6.26443 8.2807 6.81819 8.2807C7.18281 8.2807 7.4599 7.97953 7.4599 7.6791C7.4599 7.34684 7.19055 7.07749 6.85829 7.07749Z" fill="white"/>
<rect x="5.81549" y="10.607" width="2.00535" height="1.36364" fill="white"/>
<rect x="15.0802" y="10.6872" width="2.00535" height="1.36364" fill="white"/>
<rect x="15.0802" y="5.23257" width="2.00535" height="4.97326" fill="white"/>
</svg>
