<svg width="22" height="17" viewBox="0 0 22 17" fill="none" xmlns="http://www.w3.org/2000/svg">
<rect x="1.00267" y="1.50267" width="14.0374" height="14.0374" rx="3.81016" stroke="white" stroke-width="2.00535"/>
<circle cx="16.0027" cy="8.56141" r="5.57487" fill="#FF3636"/>
<mask id="path-3-inside-1_2_131" fill="white">
<path d="M14.5989 10.9L18.6096 8.49999L14.5989 6.09999"/>
</mask>
<path d="M13.5963 10.9L13.5963 11.9027L15.6016 11.9027L15.6016 10.9L13.5963 10.9ZM15.6016 6.09999L15.6016 5.09732L13.5963 5.09732L13.5963 6.09999L15.6016 6.09999ZM13.5963 6.09999L13.5963 10.9L15.6016 10.9L15.6016 6.09999L13.5963 6.09999ZM13.5692 9.17921L11.8484 10.2089L13.9079 13.6505L15.6286 12.6208L13.5692 9.17921ZM18.6096 8.49999L19.6393 10.2208L22.515 8.49999L19.6393 6.77921L18.6096 8.49999ZM15.6286 4.37921L13.9079 3.34949L11.8484 6.79106L13.5692 7.82078L15.6286 4.37921ZM15.6286 12.6208L19.6393 10.2208L17.5799 6.77921L13.5692 9.17921L15.6286 12.6208ZM19.6393 6.77921L15.6286 4.37921L13.5692 7.82078L17.5799 10.2208L19.6393 6.77921Z" fill="white" mask="url(#path-3-inside-1_2_131)"/>
<path d="M8.00135 6.51999L6.01605 8.49999L8.00135 10.48" stroke="white" stroke-width="2.00535" stroke-linecap="square"/>
</svg>
