<svg width="10" height="15" viewBox="0 0 10 15" fill="none" xmlns="http://www.w3.org/2000/svg">
<path d="M9.49994 14C9.37765 14.0004 9.25947 13.9559 9.16775 13.875L4.99994 10.1691L0.832128 13.875C0.760003 13.9391 0.670866 13.981 0.575472 13.9956C0.480078 14.0101 0.382503 13.9968 0.294522 13.9572C0.20654 13.9175 0.131912 13.8533 0.0796404 13.7721C0.0273693 13.691 -0.000310593 13.5965 -5.93398e-05 13.5V2C0.000519677 1.46974 0.211419 0.961373 0.586367 0.586426C0.961314 0.211479 1.46969 0.000579017 1.99994 0H7.99994C8.5302 0.000579017 9.03857 0.211479 9.41351 0.586426C9.78846 0.961373 9.99936 1.46974 9.99994 2V13.5C9.99994 13.6326 9.94726 13.7598 9.85349 13.8536C9.75973 13.9473 9.63255 14 9.49994 14Z" fill="white" fill-opacity="0.5"/>
</svg>
